<?xml version="1.0" encoding="UTF-8"?> <!-- Generator: Adobe Illustrator 25.3.1, SVG Export Plug-In . SVG Version: 6.00 Build 0) --> <svg xmlns="http://www.w3.org/2000/svg" xmlns:xlink="http://www.w3.org/1999/xlink" version="1.1" id="Layer_1" x="0px" y="0px" viewBox="0 0 792 612" style="enable-background:new 0 0 792 612;" xml:space="preserve"> <style type="text/css"> .st0{fill:#636569;} .st1{fill:#074174;} .st2{fill:url(#SVGID_1_);} .st3{fill:url(#SVGID_2_);} .st4{fill:url(#SVGID_3_);} .st5{fill:url(#SVGID_4_);} .st6{fill:url(#SVGID_5_);} .st7{fill:url(#SVGID_6_);} </style> <g> <path class="st0" d="M29.6,604.1h-5.1v-40h-15v-4.7h35.1v4.7h-15V604.1z"></path> <path class="st0" d="M81.9,564.1H54.6v15.2H79v4.6H54.6v15.6h27.5v4.6H49.6v-44.6h32.3V564.1z"></path> <path class="st0" d="M107,604.9c-12.9,0-22.4-10.1-22.4-23c0-12.8,9.4-23.2,22.6-23.2c8.1,0,12.9,2.9,17.4,7.1l-3.4,3.7 c-3.8-3.6-8-6.1-14-6.1c-9.9,0-17.3,8-17.3,18.4c0,10.4,7.5,18.5,17.3,18.5c6.1,0,10.1-2.4,14.4-6.4l3.3,3.3 C120.2,601.7,115.1,604.9,107,604.9z"></path> <path class="st0" d="M134.2,584v20.1h-5v-44.6h5v19.8H160v-19.8h5v44.6h-5V584H134.2z"></path> <path class="st0" d="M206,559.5h4.9v44.6h-4l-28.8-36.6v36.6h-4.9v-44.6h4.7l28.1,35.8V559.5z"></path> <path class="st0" d="M239.8,604.9c-13.6,0-22.7-10.6-22.7-23s9.2-23.2,22.8-23.2c13.6,0,22.7,10.6,22.7,23 C262.6,594.1,253.4,604.9,239.8,604.9z M239.8,563.4c-10.2,0-17.5,8.2-17.5,18.4c0,10.2,7.4,18.5,17.6,18.5 c10.2,0,17.5-8.2,17.5-18.4C257.4,571.6,250,563.4,239.8,563.4z"></path> <path class="st0" d="M266.2,559.5h5v40h25.1v4.7h-30.2V559.5z"></path> <path class="st0" d="M316.8,604.9c-13.6,0-22.7-10.6-22.7-23s9.2-23.2,22.8-23.2c13.6,0,22.7,10.6,22.7,23 C339.7,594.1,330.4,604.9,316.8,604.9z M316.8,563.4c-10.2,0-17.5,8.2-17.5,18.4c0,10.2,7.4,18.5,17.6,18.5 c10.2,0,17.5-8.2,17.5-18.4C334.4,571.6,327,563.4,316.8,563.4z"></path> <path class="st0" d="M366.6,604.9c-14,0-22.7-10.2-22.7-23c0-12.3,9-23.2,22.4-23.2c7.5,0,12.2,2.2,16.6,5.9l-3.3,3.8 c-3.4-3-7.3-5.1-13.6-5.1c-9.9,0-17,8.4-17,18.4c0,10.7,6.8,18.6,17.7,18.6c5.1,0,9.8-2,12.9-4.5v-11.1h-13.6v-4.5h18.4v17.8 C380.3,601.7,374.1,604.9,366.6,604.9z"></path> <path class="st0" d="M410.4,604.1h-5.1v-17.7l-18.6-27h6.1l15.1,22.3l15.2-22.3h5.9l-18.6,26.9V604.1z"></path> <path class="st0" d="M447.7,604.9c-4,0-7.8-0.6-11.4-1.9s-6.8-3.1-9.5-5.6l6.9-8.2c4.5,3.6,9.3,5.4,14.5,5.4c1.7,0,2.9-0.3,3.8-0.8 c0.9-0.5,1.3-1.3,1.3-2.3v-0.1c0-0.5-0.1-0.9-0.3-1.2c-0.2-0.4-0.6-0.7-1.2-1c-0.6-0.3-1.3-0.7-2.3-1c-1-0.3-2.2-0.6-3.7-1 c-2.4-0.6-4.6-1.2-6.6-1.8c-2-0.7-3.8-1.5-5.3-2.5c-1.5-1-2.7-2.3-3.6-3.9c-0.9-1.5-1.3-3.5-1.3-5.8V573c0-2.1,0.4-4,1.2-5.7 c0.8-1.7,1.9-3.2,3.4-4.5c1.5-1.3,3.3-2.3,5.4-3c2.1-0.7,4.5-1.1,7.2-1.1c3.8,0,7.2,0.5,10.2,1.5c3,1,5.7,2.5,8.1,4.5l-6.2,8.8 c-2-1.4-4.1-2.5-6.3-3.3c-2.1-0.7-4.2-1.1-6.2-1.1c-1.5,0-2.6,0.3-3.3,0.8c-0.7,0.6-1.1,1.2-1.1,2v0.1c0,0.5,0.1,1,0.4,1.3 c0.2,0.4,0.6,0.7,1.2,1.1c0.6,0.3,1.4,0.6,2.4,1c1,0.3,2.3,0.6,3.8,1c2.6,0.6,4.9,1.2,6.9,1.9c2.1,0.7,3.8,1.6,5.3,2.7 c1.4,1.1,2.6,2.3,3.3,3.8c0.8,1.5,1.1,3.3,1.1,5.4v0.1c0,2.3-0.4,4.3-1.3,6.1c-0.9,1.8-2.1,3.3-3.7,4.6c-1.6,1.3-3.5,2.2-5.7,2.9 C452.9,604.5,450.4,604.9,447.7,604.9z"></path> <path class="st0" d="M491.6,605c-3.4,0-6.6-0.6-9.6-1.8c-2.9-1.2-5.5-2.9-7.6-4.9c-2.1-2.1-3.8-4.5-5-7.3c-1.2-2.8-1.8-5.8-1.8-9 v-0.1c0-3.2,0.6-6.2,1.8-9c1.2-2.8,2.9-5.3,5.1-7.4c2.2-2.1,4.7-3.8,7.6-5c2.9-1.2,6.1-1.8,9.6-1.8c3.4,0,6.6,0.6,9.6,1.8 c2.9,1.2,5.5,2.9,7.6,4.9c2.1,2.1,3.8,4.5,5,7.3c1.2,2.8,1.8,5.8,1.8,9v0.1c0,3.2-0.6,6.2-1.8,9c-1.2,2.8-2.9,5.3-5.1,7.4 c-2.2,2.1-4.7,3.8-7.6,5C498.3,604.4,495.1,605,491.6,605z M491.7,593.8c1.7,0,3.3-0.3,4.7-1c1.4-0.6,2.6-1.5,3.6-2.6 c1-1.1,1.7-2.3,2.3-3.8c0.6-1.4,0.8-3,0.8-4.6v-0.1c0-1.6-0.3-3.1-0.8-4.6c-0.6-1.4-1.3-2.7-2.4-3.8c-1-1.1-2.2-2-3.6-2.6 c-1.4-0.7-3-1-4.7-1c-1.7,0-3.2,0.3-4.6,1c-1.4,0.6-2.6,1.5-3.6,2.6c-1,1.1-1.8,2.3-2.3,3.8c-0.5,1.4-0.8,3-0.8,4.6v0.1 c0,1.6,0.3,3.1,0.8,4.6c0.6,1.4,1.3,2.7,2.3,3.8c1,1.1,2.2,2,3.6,2.6C488.5,593.5,490,593.8,491.7,593.8z"></path> <path class="st0" d="M518.4,559.5h12.4v33.8h21.6v10.8h-34V559.5z"></path> <path class="st0" d="M573.9,604.9c-3.2,0-6.1-0.4-8.6-1.2c-2.6-0.8-4.7-2.1-6.5-3.7c-1.8-1.7-3.2-3.8-4.1-6.4 c-1-2.6-1.4-5.6-1.4-9.1v-25.1h12.6v24.8c0,3.2,0.7,5.6,2.2,7.2c1.5,1.6,3.5,2.3,5.9,2.3c2.5,0,4.5-0.7,5.9-2.2 c1.5-1.5,2.2-3.8,2.2-6.9v-25.1h12.6v24.7c0,3.6-0.5,6.7-1.5,9.3c-1,2.6-2.4,4.8-4.2,6.4c-1.8,1.7-4,2.9-6.6,3.7 C579.9,604.5,577.1,604.9,573.9,604.9z"></path> <path class="st0" d="M610.5,570.3h-13.4v-10.8h39.1v10.8h-13.4v33.8h-12.4V570.3z"></path> <path class="st0" d="M639.4,559.5h12.4v44.6h-12.4V559.5z"></path> <path class="st0" d="M678.6,605c-3.4,0-6.6-0.6-9.6-1.8c-2.9-1.2-5.5-2.9-7.6-4.9c-2.1-2.1-3.8-4.5-5-7.3c-1.2-2.8-1.8-5.8-1.8-9 v-0.1c0-3.2,0.6-6.2,1.8-9c1.2-2.8,2.9-5.3,5.1-7.4c2.2-2.1,4.7-3.8,7.6-5c2.9-1.2,6.1-1.8,9.6-1.8c3.4,0,6.6,0.6,9.6,1.8 c2.9,1.2,5.5,2.9,7.6,4.9c2.1,2.1,3.8,4.5,5,7.3c1.2,2.8,1.8,5.8,1.8,9v0.1c0,3.2-0.6,6.2-1.8,9c-1.2,2.8-2.9,5.3-5.1,7.4 c-2.2,2.1-4.7,3.8-7.6,5C685.2,604.4,682,605,678.6,605z M678.7,593.8c1.7,0,3.3-0.3,4.7-1c1.4-0.6,2.6-1.5,3.6-2.6 c1-1.1,1.7-2.3,2.3-3.8c0.6-1.4,0.8-3,0.8-4.6v-0.1c0-1.6-0.3-3.1-0.8-4.6c-0.6-1.4-1.3-2.7-2.4-3.8c-1-1.1-2.2-2-3.6-2.6 c-1.4-0.7-3-1-4.7-1c-1.7,0-3.2,0.3-4.6,1c-1.4,0.6-2.6,1.5-3.6,2.6c-1,1.1-1.8,2.3-2.3,3.8c-0.5,1.4-0.8,3-0.8,4.6v0.1 c0,1.6,0.3,3.1,0.8,4.6s1.3,2.7,2.3,3.8c1,1.1,2.2,2,3.6,2.6C675.4,593.5,676.9,593.8,678.7,593.8z"></path> <path class="st0" d="M705.3,559.5h11.6l18.4,23.6v-23.6h12.2v44.6h-10.9l-19.1-24.5v24.5h-12.2V559.5z"></path> <path class="st0" d="M769,604.9c-4,0-7.8-0.6-11.4-1.9c-3.6-1.2-6.8-3.1-9.5-5.6l6.9-8.2c4.5,3.6,9.3,5.4,14.5,5.4 c1.7,0,2.9-0.3,3.8-0.8c0.9-0.5,1.3-1.3,1.3-2.3v-0.1c0-0.5-0.1-0.9-0.3-1.2c-0.2-0.4-0.6-0.7-1.2-1c-0.6-0.3-1.3-0.7-2.3-1 c-1-0.3-2.2-0.6-3.7-1c-2.4-0.6-4.6-1.2-6.6-1.8c-2-0.7-3.8-1.5-5.3-2.5c-1.5-1-2.7-2.3-3.6-3.9c-0.9-1.5-1.3-3.5-1.3-5.8V573 c0-2.1,0.4-4,1.2-5.7c0.8-1.7,1.9-3.2,3.4-4.5c1.5-1.3,3.3-2.3,5.4-3c2.1-0.7,4.5-1.1,7.2-1.1c3.8,0,7.2,0.5,10.2,1.5 c3,1,5.7,2.5,8.1,4.5l-6.2,8.8c-2-1.4-4.1-2.5-6.3-3.3c-2.1-0.7-4.2-1.1-6.2-1.1c-1.5,0-2.6,0.3-3.3,0.8c-0.7,0.6-1.1,1.2-1.1,2 v0.1c0,0.5,0.1,1,0.4,1.3c0.2,0.4,0.6,0.7,1.2,1.1c0.6,0.3,1.4,0.6,2.4,1c1,0.3,2.3,0.6,3.8,1c2.6,0.6,4.9,1.2,6.9,1.9 c2.1,0.7,3.8,1.6,5.3,2.7c1.4,1.1,2.6,2.3,3.3,3.8c0.8,1.5,1.1,3.3,1.1,5.4v0.1c0,2.3-0.4,4.3-1.3,6.1c-0.9,1.8-2.1,3.3-3.7,4.6 c-1.6,1.3-3.5,2.2-5.7,2.9C774.2,604.5,771.7,604.9,769,604.9z"></path> </g> <path class="st1" d="M9.4,503.5v-23.9c8.1,4.7,14.5,7.3,20.7,7.3c6.6,0,12.2-3.2,12.2-11.3v-0.4c0-6-1.9-10.5-12.8-23 c-15.6-17.7-22-26.2-22-42.2v-0.4c0-21.1,13.8-34.5,32-34.5c9.2,0,14.7,1.3,20.3,4.1v23.9c-7.2-4.1-11.5-6-17.5-6 c-6.4,0-11.9,4.1-11.9,11.3v0.4c0,6.2,1.9,8.5,12.8,21.1c18.1,20.9,22,29,22,44.1v0.4c0,20.7-14.5,34.5-32.6,34.5 C23.8,509,16,506.7,9.4,503.5z"></path> <path class="st1" d="M124.9,376.2h23v55.2l18.7-55.2h26L170.3,432l22.6,76.1h-25.6l-14.3-49.9l-5.1,14.5v35.4h-23V376.2z"></path> <path class="st1" d="M266,456.1l-24.5-79.9h23.7l12.4,49.3l12.6-49.3h23.2l-24.5,79.9v52h-23V456.1z"></path> <path class="st1" d="M374.1,376.2h23v110h24.3v21.9h-47.3V376.2z"></path> <path class="st1" d="M505.8,376.2h23v131.9h-23V376.2z"></path> <path class="st1" d="M604.3,376.2h21.5l23.2,66.7v-66.7h22.4v131.9H651l-24.3-69.9v69.9h-22.4V376.2z"></path> <path class="st1" d="M734.9,376.2h50.5v21.9h-27.5v32.8h24.3v21.8h-24.3v33.5H786v21.9h-51V376.2z"></path> <linearGradient id="SVGID_1_" gradientUnits="userSpaceOnUse" x1="577.8347" y1="510.5573" x2="577.8347" y2="77.2206"> <stop offset="6.748587e-02" style="stop-color:#FFFFFF;stop-opacity:0"></stop> <stop offset="0.6319" style="stop-color:#ABADAB"></stop> </linearGradient> <polygon class="st2" points="568.9,84.4 568.9,510.6 586.7,510.6 586.7,77.2 "></polygon> <linearGradient id="SVGID_2_" gradientUnits="userSpaceOnUse" x1="697.8656" y1="510.5573" x2="697.8656" y2="182.6511"> <stop offset="6.748587e-02" style="stop-color:#FFFFFF;stop-opacity:0"></stop> <stop offset="0.6319" style="stop-color:#ABADAB"></stop> </linearGradient> <polygon class="st3" points="689,182.7 689,510.6 706.8,510.6 706.8,207.9 "></polygon> <linearGradient id="SVGID_3_" gradientUnits="userSpaceOnUse" x1="457.7901" y1="510.5573" x2="457.7901" y2="125.9831"> <stop offset="6.781656e-02" style="stop-color:#FFFFFF;stop-opacity:0"></stop> <stop offset="0.6319" style="stop-color:#ABADAB"></stop> </linearGradient> <polygon class="st4" points="448.9,133.2 448.9,510.6 466.7,510.6 466.7,126 "></polygon> <linearGradient id="SVGID_4_" gradientUnits="userSpaceOnUse" x1="337.7507" y1="510.5573" x2="337.7507" y2="174.7095"> <stop offset="6.748587e-02" style="stop-color:#FFFFFF;stop-opacity:0"></stop> <stop offset="0.6319" style="stop-color:#ABADAB"></stop> </linearGradient> <polygon class="st5" points="328.8,181.9 328.8,510.6 346.7,510.6 346.7,174.7 "></polygon> <linearGradient id="SVGID_5_" gradientUnits="userSpaceOnUse" x1="97.6827" y1="510.5573" x2="97.6827" y2="99.3964"> <stop offset="6.748587e-02" style="stop-color:#FFFFFF;stop-opacity:0"></stop> <stop offset="0.6319" style="stop-color:#ABADAB"></stop> </linearGradient> <polygon class="st6" points="88.8,112.7 88.8,510.6 106.6,510.6 106.6,99.4 "></polygon> <linearGradient id="SVGID_6_" gradientUnits="userSpaceOnUse" x1="217.7137" y1="510.5573" x2="217.7137" y2="10"> <stop offset="6.748587e-02" style="stop-color:#FFFFFF;stop-opacity:0"></stop> <stop offset="0.6319" style="stop-color:#ABADAB"></stop> </linearGradient> <polygon class="st7" points="208.8,23.3 208.8,510.6 226.6,510.6 226.6,10 "></polygon> </svg> 