<svg xmlns="http://www.w3.org/2000/svg" width="324" height="110.327" viewBox="0 0 324 110.327">
  <g transform="translate(-140 -91)">
    <path d="M459.673,307.3a6.235,6.235,0,0,1-.414,2.223,5.655,5.655,0,0,1-1.192,1.872,5.885,5.885,0,0,1-1.835,1.3,6,6,0,0,1-2.512.563,5.873,5.873,0,0,1-5.124-2.977,5.932,5.932,0,0,1-.783-2.984,6.068,6.068,0,0,1,.453-2.325,6,6,0,0,1,1.256-1.934,5.872,5.872,0,0,1,8.047-.3,5.909,5.909,0,0,1,1.312,1.655h-1.964a4.932,4.932,0,0,0-1.438-1.164,3.665,3.665,0,0,0-1.712-.4,3.988,3.988,0,0,0-2.163.616,4.412,4.412,0,0,0-1.545,1.648,4.535,4.535,0,0,0-.562,2.2,4.311,4.311,0,0,0,.335,1.667,4.55,4.55,0,0,0,.921,1.42,4.379,4.379,0,0,0,1.378.971,3.968,3.968,0,0,0,1.652.358,4.035,4.035,0,0,0,1.687-.358,4.086,4.086,0,0,0,1.37-1.009,4.957,4.957,0,0,0,.917-1.5H452.38V307.3Z" transform="translate(-288.577 -115.109)" fill="#10774b"/>
    <path d="M466.772,307.9a2.511,2.511,0,0,0-.445-1.275,2.864,2.864,0,0,0-1.027-.918,2.759,2.759,0,0,0-2.642,0,2.868,2.868,0,0,0-1.023.917,2.5,2.5,0,0,0-.442,1.272Zm1.622.434a7.112,7.112,0,0,1-.046.814h-7.155a3.316,3.316,0,0,0,.563,1.2,2.837,2.837,0,0,0,1,.848,2.755,2.755,0,0,0,1.278.305,2.822,2.822,0,0,0,1.447-.4,2.556,2.556,0,0,0,1.012-1.051h1.622a4.476,4.476,0,0,1-1.625,2.135,4.263,4.263,0,0,1-2.524.8,4.1,4.1,0,0,1-1.7-.361,4.366,4.366,0,0,1-1.416-1.009,4.717,4.717,0,0,1-.945-1.469,4.5,4.5,0,0,1-.335-1.714,4.665,4.665,0,0,1,.331-1.739,4.478,4.478,0,0,1,.943-1.469A4.334,4.334,0,0,1,464,303.9a4.261,4.261,0,0,1,1.712.347,4.368,4.368,0,0,1,1.4.963,4.509,4.509,0,0,1,.94,1.427,4.356,4.356,0,0,1,.339,1.7" transform="translate(-287.346 -114.836)" fill="#10774b"/>
    <path d="M461.689,255.837v13.628h43.892A29.772,29.772,0,0,1,495,281.594a32.211,32.211,0,0,1-17.686,5.532,33.1,33.1,0,0,1-22.888-9.024,30.437,30.437,0,0,1-9.631-22.29c0-17.387,14.44-31.54,32.189-31.533a30.3,30.3,0,0,1,26.958,15.645h15.907a41.344,41.344,0,0,0-7.6-13.357,47.29,47.29,0,0,0-67.9-2.962,43.669,43.669,0,0,0,.139,64.116,46.955,46.955,0,0,0,63.568,1.254c15.514-13.347,15.111-33.139,15.111-33.139Z" transform="translate(-290.4 -119.217)" fill="#0c5594"/>
    <path d="M586.31,255.459c0,9.809-4.363,19.059-11.388,24.143-7.584,5.506-16.11,5.967-24.193,5.967H540.421v-60h8.558c8.488,0,17.4.437,24.891,5.668a29.245,29.245,0,0,1,12.44,24.224m-5.441-36.351c-6.993-4.487-17.484-7.168-28.061-7.168H526.029V299.2h26.779c10.577,0,21.07-2.681,28.067-7.173a43.427,43.427,0,0,0-.006-72.916" transform="translate(-286.685 -119.082)" fill="#0c5594"/>
    <path d="M690.279,211.939v13.628H709.5V299.2h14.393V225.567H743V211.939Z" transform="translate(-278.996 -119.082)" fill="#0c5594"/>
    <path d="M672.015,295.758a19.1,19.1,0,0,0,6.449-4.1c-13.028-7.579-16.1-26.478-7.247-35.813-23.063,7.712-44.919.748-65.988-15.283a32.82,32.82,0,0,0-1.278,9.475c19.9,16.164,49.422,12.426,49.58,12.4.476-.063-18.669,6.911-49.948-4.425-.1,20.633,21.225,45.622,52.582,42.616a40.58,40.58,0,0,0,10.156-2.3c-3.858-5.663-6.442-17.644-3.622-28.176.094-.351-2.3,14.985,9.316,25.6" transform="translate(-283.682 -119.338)" fill="#10774b"/>
    <path d="M696.48,248.744a45.317,45.317,0,0,0-13.093-25.07,45.835,45.835,0,0,0-64.322-.473c-.038.036-.072.071-.106.106A48.961,48.961,0,0,0,608.7,238.045l-.836,1.917s.8,1.213,4.756,4.11a27.165,27.165,0,0,0,6.4,3.629S627.607,223.47,651,223.279a32.193,32.193,0,0,1,23.04,9.671,32.642,32.642,0,0,1,9.028,16.545,31.71,31.71,0,0,1,.651,6.4c0,4.539-1.957,16.272-11.4,24.49l-.976.825a22.8,22.8,0,0,0,8.543,10.026l1.476-1.253a46.778,46.778,0,0,0,11.7-15.712c.037-.074.066-.134.093-.193a44.205,44.205,0,0,0,3.911-18.183,44.652,44.652,0,0,0-.578-7.146" transform="translate(-284.184 -119.258)" fill="#0c5594"/>
    <path d="M476.605,308.42a2.982,2.982,0,0,0-.235-1.183,3.135,3.135,0,0,0-.652-.974,2.887,2.887,0,0,0-.974-.655,3.059,3.059,0,0,0-1.183-.233,3.025,3.025,0,0,0-2.63,1.527,3.084,3.084,0,0,0,0,3.065,3,3,0,0,0,1.107,1.127,3.031,3.031,0,0,0,3.053,0,3.113,3.113,0,0,0,1.514-2.669m1.622,0a4.641,4.641,0,0,1-.487,1.994,4.715,4.715,0,0,1-1.04,1.379,4.51,4.51,0,0,1-1.446.887,4.726,4.726,0,0,1-1.693.308,4.584,4.584,0,0,1-2.322-.616,4.657,4.657,0,0,1-1.706-1.679,4.428,4.428,0,0,1-.632-2.3,4.389,4.389,0,0,1,1.4-3.208,4.795,4.795,0,0,1,6.559.027,4.452,4.452,0,0,1,1.009,1.438,4.367,4.367,0,0,1,.361,1.774" transform="translate(-286.369 -114.836)" fill="#10774b"/>
    <path d="M482.592,305.566a2.344,2.344,0,0,0-.609.087,2.527,2.527,0,0,0-.563.224,1.5,1.5,0,0,0-.731.857,3.747,3.747,0,0,0-.22,1.306v4.727h-1.622v-8.641h1.514v.784h.031a2.183,2.183,0,0,1,.932-.753,3.544,3.544,0,0,1,1.267-.258Z" transform="translate(-285.327 -114.836)" fill="#10774b"/>
    <path d="M490.6,308.466a3.2,3.2,0,0,0-.479-1.766,2.742,2.742,0,0,0-1.385-1.088,3.291,3.291,0,0,0-1.142-.236,2.825,2.825,0,0,0-1.511.419,3.122,3.122,0,0,0-1.48,2.657,3.016,3.016,0,0,0,.4,1.511,3.067,3.067,0,0,0,1.093,1.119,2.821,2.821,0,0,0,1.488.422,3.009,3.009,0,0,0,1.153-.216,2.745,2.745,0,0,0,.933-.632,3.29,3.29,0,0,0,.654-.993,2.8,2.8,0,0,0,.282-1.2m1.622,3.129a5.057,5.057,0,0,1-.567,2.47,3.729,3.729,0,0,1-1.622,1.564,5.447,5.447,0,0,1-2.486.534,4.873,4.873,0,0,1-1.777-.32,4.411,4.411,0,0,1-2.478-2.405h1.8a2.96,2.96,0,0,0,.663.688,2.7,2.7,0,0,0,.83.419,3.281,3.281,0,0,0,.974.141,3.044,3.044,0,0,0,2.26-.784,3.1,3.1,0,0,0,.777-2.276h-.03a3.019,3.019,0,0,1-1.29,1.023,4.252,4.252,0,0,1-1.687.339,4.479,4.479,0,0,1-2.28-.62,4.712,4.712,0,0,1-1.7-1.679,4.356,4.356,0,0,1-.632-2.269,4.2,4.2,0,0,1,.465-1.933,4.5,4.5,0,0,1,1.7-1.919,4.643,4.643,0,0,1,2.478-.669,4.417,4.417,0,0,1,1.081.137,4.267,4.267,0,0,1,1.047.415,3.19,3.19,0,0,1,.848.674v-1h1.622Z" transform="translate(-284.894 -114.836)" fill="#10774b"/>
    <path d="M495.128,313.021h-1.622v-8.64h1.622Zm0-9.638h-1.622v-1.9h1.622Z" transform="translate(-287.051 -115.089)" fill="#10774b"/>
    <path d="M504.047,308.466a3.407,3.407,0,0,0-.213-1.21,2.977,2.977,0,0,0-.613-.99,2.737,2.737,0,0,0-.956-.658,3.107,3.107,0,0,0-1.21-.232,2.814,2.814,0,0,0-1.519.419,2.96,2.96,0,0,0-1.058,1.13,3.2,3.2,0,0,0-.384,1.541,3.046,3.046,0,0,0,.392,1.5,2.982,2.982,0,0,0,1.074,1.123,2.794,2.794,0,0,0,1.48.414,2.915,2.915,0,0,0,1.515-.411,3.036,3.036,0,0,0,1.492-2.627m1.591,4.3h-1.622v-1.34h-.03a2.93,2.93,0,0,1-1.229,1.165,3.71,3.71,0,0,1-1.7.4,4.739,4.739,0,0,1-1.793-.339,4.492,4.492,0,0,1-1.466-.943,4.28,4.28,0,0,1-.974-1.443,4.585,4.585,0,0,1-.35-1.782,4.718,4.718,0,0,1,.347-1.819,4.351,4.351,0,0,1,2.428-2.417,4.739,4.739,0,0,1,1.808-.346,4.08,4.08,0,0,1,1.126.16,3.332,3.332,0,0,1,1.029.487,2.983,2.983,0,0,1,.777.8h.03v-1.217h1.622Z" transform="translate(-286.971 -114.836)" fill="#10774b"/>
    <path d="M520.823,307.281a4.953,4.953,0,0,0-.343-1.759,4.059,4.059,0,0,0-.639-1.088,3.654,3.654,0,0,0-.883-.784,3.931,3.931,0,0,0-1.092-.464,4.927,4.927,0,0,0-1.267-.16H514.55v8.45h2.01a4.934,4.934,0,0,0,2.273-.492,3.384,3.384,0,0,0,1.477-1.446,4.7,4.7,0,0,0,.513-2.257m1.682,0a7.054,7.054,0,0,1-.384,2.235,4.631,4.631,0,0,1-1.069,1.838,5.4,5.4,0,0,1-2.022,1.283,7.545,7.545,0,0,1-2.485.384h-3.676V301.48h3.745a5.364,5.364,0,0,1,4.705,2.123,6.308,6.308,0,0,1,.872,1.732,6.2,6.2,0,0,1,.316,1.945" transform="translate(-286.127 -115.089)" fill="#10774b"/>
    <path d="M530.171,307.9a2.5,2.5,0,0,0-.445-1.275,2.865,2.865,0,0,0-1.027-.918,2.759,2.759,0,0,0-2.642,0,2.871,2.871,0,0,0-1.023.917,2.5,2.5,0,0,0-.442,1.272Zm1.621.434a7.126,7.126,0,0,1-.046.814h-7.155a3.31,3.31,0,0,0,.563,1.2,2.834,2.834,0,0,0,1,.848,2.753,2.753,0,0,0,1.278.305,2.825,2.825,0,0,0,1.447-.4,2.556,2.556,0,0,0,1.012-1.051h1.622a4.476,4.476,0,0,1-1.625,2.135,4.263,4.263,0,0,1-2.524.8,4.1,4.1,0,0,1-1.7-.361,4.367,4.367,0,0,1-1.416-1.009,4.713,4.713,0,0,1-.944-1.469,4.5,4.5,0,0,1-.335-1.714,4.662,4.662,0,0,1,.331-1.739,4.476,4.476,0,0,1,.943-1.469A4.333,4.333,0,0,1,527.4,303.9a4.26,4.26,0,0,1,1.712.347,4.368,4.368,0,0,1,1.4.963,4.508,4.508,0,0,1,.94,1.427,4.356,4.356,0,0,1,.339,1.7" transform="translate(-285.591 -114.836)" fill="#10774b"/>
    <path d="M540,308.466a3.121,3.121,0,0,0-.392-1.518,3.039,3.039,0,0,0-1.077-1.147,2.774,2.774,0,0,0-1.493-.426,2.7,2.7,0,0,0-1.465.42,2.916,2.916,0,0,0-1.043,1.13,3.257,3.257,0,0,0,0,3.041,2.877,2.877,0,0,0,1.051,1.122,2.928,2.928,0,0,0,3,0,2.84,2.84,0,0,0,1.046-1.116,3.179,3.179,0,0,0,.373-1.511m1.622.092a4.447,4.447,0,0,1-.574,2.23,4.326,4.326,0,0,1-3.788,2.2,4.356,4.356,0,0,1-1.758-.366,2.752,2.752,0,0,1-1.287-1.1h-.031v4.133h-1.622V304.127h1.485v1.324h.031A3.5,3.5,0,0,1,535.4,304.3a3.841,3.841,0,0,1,1.74-.4,4.605,4.605,0,0,1,1.823.358,4.093,4.093,0,0,1,1.424.985,4.468,4.468,0,0,1,.906,1.492,5.155,5.155,0,0,1,.324,1.823" transform="translate(-285.097 -114.836)" fill="#10774b"/>
    <path d="M549.549,308.466a3.41,3.41,0,0,0-.213-1.21,2.974,2.974,0,0,0-.613-.99,2.734,2.734,0,0,0-.956-.658,3.105,3.105,0,0,0-1.209-.232,2.815,2.815,0,0,0-1.519.419,2.964,2.964,0,0,0-1.058,1.13,3.2,3.2,0,0,0-.384,1.541,3.047,3.047,0,0,0,.392,1.5,2.989,2.989,0,0,0,1.073,1.123,2.8,2.8,0,0,0,1.481.414,2.913,2.913,0,0,0,1.514-.411,3.035,3.035,0,0,0,1.493-2.627m1.591,4.3h-1.622v-1.34h-.03a2.937,2.937,0,0,1-1.229,1.165,3.71,3.71,0,0,1-1.7.4,4.738,4.738,0,0,1-1.793-.339,4.494,4.494,0,0,1-1.466-.943,4.281,4.281,0,0,1-.974-1.443,4.583,4.583,0,0,1-.35-1.782,4.715,4.715,0,0,1,.347-1.819,4.351,4.351,0,0,1,2.428-2.417,4.738,4.738,0,0,1,1.809-.346,4.08,4.08,0,0,1,1.125.16,3.346,3.346,0,0,1,1.028.487,2.983,2.983,0,0,1,.777.8h.03v-1.217h1.622Z" transform="translate(-284.61 -114.836)" fill="#10774b"/>
    <path d="M556.187,305.566a2.336,2.336,0,0,0-.608.087,2.523,2.523,0,0,0-.563.224,1.5,1.5,0,0,0-.731.857,3.75,3.75,0,0,0-.22,1.306v4.727h-1.622v-8.641h1.515v.784h.031a2.176,2.176,0,0,1,.932-.753,3.547,3.547,0,0,1,1.267-.258Z" transform="translate(-283.963 -114.836)" fill="#10774b"/>
    <path d="M561.486,305.864h-1.415v7.156h-1.622v-7.156h-1.173V304.38h1.173v-2.9h1.622v2.9h1.415Z" transform="translate(-283.717 -115.089)" fill="#10774b"/>
    <path d="M575.853,312.767h-1.622v-4.8a3.415,3.415,0,0,0-.461-1.869,1.727,1.727,0,0,0-1.579-.719,2.091,2.091,0,0,0-1.253.33,1.707,1.707,0,0,0-.629.891,4.579,4.579,0,0,0-.174,1.351v4.819h-1.622v-4.8a6.741,6.741,0,0,0-.061-1.013,1.994,1.994,0,0,0-.3-.761,1.779,1.779,0,0,0-1.606-.814q-2.139,0-2.139,2.573v4.819H562.79v-8.64h1.5v.936h.03a3.476,3.476,0,0,1,1.093-.9,3.187,3.187,0,0,1,1.39-.266,3.521,3.521,0,0,1,1.586.384,2.265,2.265,0,0,1,1.093,1.062,2.92,2.92,0,0,1,1.184-1.107,3.777,3.777,0,0,1,1.671-.339,3.864,3.864,0,0,1,1.91.445,2.851,2.851,0,0,1,1.2,1.279,4.4,4.4,0,0,1,.4,1.937Z" transform="translate(-283.613 -114.836)" fill="#10774b"/>
    <path d="M583.37,307.9a2.5,2.5,0,0,0-.445-1.275,2.863,2.863,0,0,0-1.027-.918,2.774,2.774,0,0,0-1.321-.335,2.744,2.744,0,0,0-1.32.339,2.86,2.86,0,0,0-1.024.917,2.5,2.5,0,0,0-.442,1.272Zm1.622.434a7.1,7.1,0,0,1-.047.814h-7.155a3.32,3.32,0,0,0,.564,1.2,2.835,2.835,0,0,0,1,.848,2.755,2.755,0,0,0,1.278.305,2.823,2.823,0,0,0,1.447-.4,2.556,2.556,0,0,0,1.012-1.051h1.622a4.477,4.477,0,0,1-1.625,2.135,4.264,4.264,0,0,1-2.524.8,4.107,4.107,0,0,1-1.7-.361,4.381,4.381,0,0,1-1.416-1.009,4.713,4.713,0,0,1-.944-1.469,4.5,4.5,0,0,1-.335-1.714,4.667,4.667,0,0,1,.331-1.739,4.474,4.474,0,0,1,.943-1.469A4.333,4.333,0,0,1,580.6,303.9a4.262,4.262,0,0,1,1.712.347,4.357,4.357,0,0,1,1.4.963,4.514,4.514,0,0,1,.94,1.427,4.353,4.353,0,0,1,.339,1.7" transform="translate(-282.828 -114.836)" fill="#10774b"/>
    <path d="M593.565,312.767h-1.621v-4.689a3.553,3.553,0,0,0-.481-1.975,1.851,1.851,0,0,0-1.675-.727,2,2,0,0,0-1.706.761,3.122,3.122,0,0,0-.57,1.925v4.7h-1.622v-8.64h1.516v.92h.03a2.678,2.678,0,0,1,1.1-.875,3.6,3.6,0,0,1,1.424-.274,4.294,4.294,0,0,1,1.194.164,3.341,3.341,0,0,1,1.051.51,3.066,3.066,0,0,1,.808.864,4.054,4.054,0,0,1,.549,2.215Z" transform="translate(-282.294 -114.836)" fill="#10774b"/>
    <path d="M598.315,305.864H596.9v7.156h-1.621v-7.156H594.1V304.38h1.174v-2.9H596.9v2.9h1.415Z" transform="translate(-281.777 -115.089)" fill="#10774b"/>
    <path d="M610.09,308.42a2.986,2.986,0,0,0-.235-1.183,3.133,3.133,0,0,0-.652-.974,2.891,2.891,0,0,0-.975-.655,3.062,3.062,0,0,0-1.183-.233,3.025,3.025,0,0,0-2.63,1.527,3.083,3.083,0,0,0,0,3.065,3,3,0,0,0,1.107,1.127,3.032,3.032,0,0,0,3.054,0,3.113,3.113,0,0,0,1.514-2.669m1.622,0a4.643,4.643,0,0,1-.487,1.994,4.716,4.716,0,0,1-1.04,1.379,4.508,4.508,0,0,1-1.446.887,4.727,4.727,0,0,1-1.694.308,4.585,4.585,0,0,1-2.322-.616,4.658,4.658,0,0,1-1.705-1.679,4.427,4.427,0,0,1-.632-2.3,4.387,4.387,0,0,1,1.4-3.208,4.8,4.8,0,0,1,6.558.027,4.451,4.451,0,0,1,1.009,1.438,4.368,4.368,0,0,1,.361,1.774" transform="translate(-281.479 -114.836)" fill="#10774b"/>
    <path d="M615.848,305.865h-1.515v7.156h-1.622v-7.156h-.761V304.38h.761v-.419a2.211,2.211,0,0,1,1.035-2.009,2.776,2.776,0,0,1,.64-.316,2.566,2.566,0,0,1,.632-.134c.2-.014.479-.022.83-.022v1.484q-1.514,0-1.515,1v.419h1.515Z" transform="translate(-280.828 -115.089)" fill="#10774b"/>
    <path d="M626.424,303.025h-2.215v10h-1.682v-10h-2.215V301.48h6.112Z" transform="translate(-280.453 -115.089)" fill="#10774b"/>
    <path d="M630.513,305.566a2.342,2.342,0,0,0-.608.087,2.522,2.522,0,0,0-.563.224,1.494,1.494,0,0,0-.73.857,3.718,3.718,0,0,0-.221,1.306v4.727h-1.622v-8.641h1.515v.784h.031a2.181,2.181,0,0,1,.932-.753,3.544,3.544,0,0,1,1.267-.258Z" transform="translate(-280.042 -114.836)" fill="#10774b"/>
    <path d="M638.732,308.466a3.4,3.4,0,0,0-.213-1.21,2.966,2.966,0,0,0-.613-.99,2.736,2.736,0,0,0-.956-.658,3.108,3.108,0,0,0-1.21-.232,2.814,2.814,0,0,0-1.519.419,2.962,2.962,0,0,0-1.058,1.13,3.2,3.2,0,0,0-.384,1.541,3.045,3.045,0,0,0,.392,1.5,2.981,2.981,0,0,0,1.074,1.123,2.794,2.794,0,0,0,1.48.414,2.915,2.915,0,0,0,1.515-.411,3.036,3.036,0,0,0,1.492-2.627m1.591,4.3H638.7v-1.34h-.03a2.938,2.938,0,0,1-1.23,1.165,3.708,3.708,0,0,1-1.7.4,4.739,4.739,0,0,1-1.793-.339,4.489,4.489,0,0,1-1.466-.943,4.281,4.281,0,0,1-.974-1.443,4.581,4.581,0,0,1-.35-1.782,4.724,4.724,0,0,1,.347-1.819,4.352,4.352,0,0,1,2.428-2.417,4.74,4.74,0,0,1,1.808-.346,4.079,4.079,0,0,1,1.126.16,3.334,3.334,0,0,1,1.029.487,2.982,2.982,0,0,1,.777.8h.03v-1.217h1.622Z" transform="translate(-279.982 -114.836)" fill="#10774b"/>
    <path d="M649.284,312.767h-1.622v-4.689a3.554,3.554,0,0,0-.48-1.975,1.854,1.854,0,0,0-1.675-.727,2,2,0,0,0-1.706.761,3.124,3.124,0,0,0-.571,1.925v4.7h-1.62v-8.64h1.514v.92h.031a2.68,2.68,0,0,1,1.1-.875,3.6,3.6,0,0,1,1.423-.274,4.3,4.3,0,0,1,1.2.164,3.354,3.354,0,0,1,1.05.51,3.079,3.079,0,0,1,.808.864,4.056,4.056,0,0,1,.548,2.215Z" transform="translate(-279.389 -114.836)" fill="#10774b"/>
    <path d="M656.005,310.225a2.6,2.6,0,0,1-.819,2.006,2.945,2.945,0,0,1-2.082.757,3.438,3.438,0,0,1-1.1-.206,2.84,2.84,0,0,1-1.45-1.085,3.1,3.1,0,0,1-.5-1.77h1.622a1.883,1.883,0,0,0,.414,1.146,1.3,1.3,0,0,0,1.047.431,1.432,1.432,0,0,0,.647-.141,1.033,1.033,0,0,0,.441-.415,1.224,1.224,0,0,0,.16-.631.88.88,0,0,0-.419-.834,11.715,11.715,0,0,0-1.454-.632,4.284,4.284,0,0,1-1.553-.917,2.117,2.117,0,0,1-.518-1.545,2.28,2.28,0,0,1,.378-1.287,2.542,2.542,0,0,1,1.012-.887,2.961,2.961,0,0,1,1.328-.316,2.834,2.834,0,0,1,1.032.183,2.632,2.632,0,0,1,.842.517,2.345,2.345,0,0,1,.567.8,2.634,2.634,0,0,1,.21,1.02h-1.622a1.252,1.252,0,0,0-.347-.761,1.04,1.04,0,0,0-.764-.282,1.053,1.053,0,0,0-.719.255.842.842,0,0,0-.294.666.8.8,0,0,0,.194.563,1.28,1.28,0,0,0,.445.32q.252.106.7.243a4.715,4.715,0,0,1,1.907,1.005,2.328,2.328,0,0,1,.7,1.8" transform="translate(-278.89 -114.836)" fill="#10774b"/>
    <path d="M664.415,308.466a3.12,3.12,0,0,0-.392-1.518,3.034,3.034,0,0,0-1.077-1.147,2.774,2.774,0,0,0-1.492-.426,2.7,2.7,0,0,0-1.465.42,2.911,2.911,0,0,0-1.043,1.13,3.257,3.257,0,0,0,0,3.041A2.876,2.876,0,0,0,660,311.088a2.928,2.928,0,0,0,3,0,2.843,2.843,0,0,0,1.046-1.116,3.169,3.169,0,0,0,.373-1.511m1.621.092a4.449,4.449,0,0,1-.574,2.23,4.328,4.328,0,0,1-3.788,2.2,4.356,4.356,0,0,1-1.758-.366,2.752,2.752,0,0,1-1.287-1.1H658.6v4.133h-1.621V304.127h1.485v1.324h.031a3.509,3.509,0,0,1,1.328-1.152,3.842,3.842,0,0,1,1.74-.4,4.606,4.606,0,0,1,1.823.358,4.094,4.094,0,0,1,1.424.985,4.477,4.477,0,0,1,.906,1.492,5.159,5.159,0,0,1,.323,1.823" transform="translate(-278.638 -114.836)" fill="#10774b"/>
    <path d="M673.972,308.42a2.986,2.986,0,0,0-.235-1.183,3.137,3.137,0,0,0-.652-.974,2.887,2.887,0,0,0-.974-.655,3.059,3.059,0,0,0-1.183-.233,3.025,3.025,0,0,0-2.63,1.527,3.083,3.083,0,0,0,0,3.065,3,3,0,0,0,1.107,1.127,3.031,3.031,0,0,0,3.053,0,3.113,3.113,0,0,0,1.515-2.669m1.622,0a4.641,4.641,0,0,1-.487,1.994,4.715,4.715,0,0,1-1.039,1.379,4.512,4.512,0,0,1-1.446.887,4.726,4.726,0,0,1-1.693.308,4.583,4.583,0,0,1-2.322-.616,4.658,4.658,0,0,1-1.706-1.679,4.429,4.429,0,0,1-.632-2.3,4.393,4.393,0,0,1,1.4-3.208,4.795,4.795,0,0,1,6.559.027,4.452,4.452,0,0,1,1.009,1.438,4.368,4.368,0,0,1,.361,1.774" transform="translate(-278.166 -114.836)" fill="#10774b"/>
    <path d="M679.96,305.566a2.345,2.345,0,0,0-.609.087,2.524,2.524,0,0,0-.563.224,1.5,1.5,0,0,0-.731.857,3.749,3.749,0,0,0-.22,1.306v4.727h-1.621v-8.641h1.514v.784h.031a2.185,2.185,0,0,1,.932-.753,3.546,3.546,0,0,1,1.267-.258Z" transform="translate(-277.434 -114.836)" fill="#10774b"/>
    <path d="M685.163,305.864h-1.415v7.156h-1.622v-7.156h-1.173V304.38h1.173v-2.9h1.622v2.9h1.415Z" transform="translate(-279.972 -115.089)" fill="#10774b"/>
    <path d="M692.934,308.466a3.407,3.407,0,0,0-.213-1.21,2.977,2.977,0,0,0-.613-.99,2.737,2.737,0,0,0-.956-.658,3.107,3.107,0,0,0-1.21-.232,2.814,2.814,0,0,0-1.519.419,2.959,2.959,0,0,0-1.058,1.13,3.2,3.2,0,0,0-.385,1.541,3.044,3.044,0,0,0,.392,1.5,2.984,2.984,0,0,0,1.074,1.123,2.794,2.794,0,0,0,1.48.414,2.915,2.915,0,0,0,1.515-.411,3.036,3.036,0,0,0,1.493-2.627m1.591,4.3H692.9v-1.34h-.03a2.938,2.938,0,0,1-1.23,1.165,3.709,3.709,0,0,1-1.7.4,4.738,4.738,0,0,1-1.793-.339,4.493,4.493,0,0,1-1.466-.943,4.282,4.282,0,0,1-.974-1.443,4.58,4.58,0,0,1-.35-1.782,4.718,4.718,0,0,1,.347-1.819,4.352,4.352,0,0,1,2.428-2.417,4.737,4.737,0,0,1,1.808-.346,4.082,4.082,0,0,1,1.126.16,3.331,3.331,0,0,1,1.028.487,2.985,2.985,0,0,1,.777.8h.03v-1.217h1.622Z" transform="translate(-279.511 -114.836)" fill="#10774b"/>
    <path d="M699.482,305.864h-1.415v7.156h-1.622v-7.156h-1.173V304.38h1.173v-2.9h1.622v2.9h1.415Z" transform="translate(-278.473 -115.089)" fill="#10774b"/>
    <path d="M702.239,313.021h-1.622v-8.64h1.622Zm0-9.638h-1.622v-1.9h1.622Z" transform="translate(-277.913 -115.089)" fill="#10774b"/>
    <path d="M711.286,308.42a2.983,2.983,0,0,0-.235-1.183,3.137,3.137,0,0,0-.652-.974,2.89,2.89,0,0,0-.974-.655,3.062,3.062,0,0,0-1.183-.233,3.025,3.025,0,0,0-2.63,1.527,3.083,3.083,0,0,0,0,3.065,3,3,0,0,0,1.107,1.127,3.031,3.031,0,0,0,3.053,0,3.112,3.112,0,0,0,1.515-2.669m1.622,0a4.645,4.645,0,0,1-.487,1.994,4.714,4.714,0,0,1-1.04,1.379,4.51,4.51,0,0,1-1.446.887,4.727,4.727,0,0,1-1.694.308,4.584,4.584,0,0,1-2.322-.616,4.656,4.656,0,0,1-1.706-1.679,4.43,4.43,0,0,1-.632-2.3,4.391,4.391,0,0,1,1.4-3.208,4.795,4.795,0,0,1,6.559.027,4.451,4.451,0,0,1,1.009,1.438,4.368,4.368,0,0,1,.361,1.774" transform="translate(-277.603 -114.836)" fill="#10774b"/>
    <path d="M721.454,312.767h-1.622v-4.689a3.554,3.554,0,0,0-.479-1.975,1.854,1.854,0,0,0-1.675-.727,2,2,0,0,0-1.706.761,3.122,3.122,0,0,0-.571,1.925v4.7h-1.62v-8.64H715.3v.92h.031a2.679,2.679,0,0,1,1.1-.875,3.6,3.6,0,0,1,1.423-.274,4.3,4.3,0,0,1,1.2.164,3.355,3.355,0,0,1,1.05.51,3.081,3.081,0,0,1,.808.864,4.053,4.053,0,0,1,.548,2.215Z" transform="translate(-276.535 -114.836)" fill="#10774b"/>
  </g>
</svg>
