<?xml version="1.0" encoding="utf-8"?>
<!-- Generator: Adobe Illustrator 26.2.1, SVG Export Plug-In . SVG Version: 6.00 Build 0)  -->
<svg version="1.1" id="Layer_1" xmlns="http://www.w3.org/2000/svg" xmlns:xlink="http://www.w3.org/1999/xlink" x="0px" y="0px"
	 width="126px" height="32.6px" viewBox="0 0 126 32.6" style="enable-background:new 0 0 126 32.6;" xml:space="preserve">
<style type="text/css">
	.st0{fill:#FFFFFF;stroke:#FFFFFF;stroke-width:0.5;}
</style>
<g>
	<path class="st0" d="M44.1,30.4l1.1-8h-7.3c-3.5,0-5.6-1.6-5.5-4.5l0.2-2.7c0.2-2.6,2.8-5,5.9-5l7.9-0.1l1.2-8.3H37.4
		c-3.8,0-6.6,0.9-9.4,3.5c-3.2,3-4.2,7.7-4.3,10c0,0-1.3-3.4-7.6-3.4h-3.9c-1.3,0-1.3-1.9-0.1-1.9h11l1.6-8.2H13.4
		c-6.8,0-10.9,4.8-10.9,9.7c0,6.4,5.2,8.4,8,8.4h4.4c1.6,0,1.7,2.2,0.1,2.2H2.5l-2,8.3h14.9c5.7,0,8.7-6,8.7-6s2.6,6,9.2,6H44.1z"/>
	<path class="st0" d="M117.8,9.8l-2.3,20.6h-9.3l2.3-20.6h-5.1c0.8,2,1.2,4.2,1,6.6c-0.6,8.6-7.9,15.4-16.5,15.4
		c-5.7,0-10.5-2.8-13-7.4c0,0-3.9,5.9-10.8,5.9h-18l4.1-28.7h14.3c7,0,10.5,5.4,11.3,6.9c3.1-4.7,8.3-7.7,14.2-7.7
		c4.2,0,7.5,1.3,10.2,4l0.7-3.2h24.6l-1,8L117.8,9.8 M61.9,22.4c2.1,0,3.8-1.1,4.2-1.5h18.9l4.6,4.6c0.2,0.2,0.4,0.2,0.5,0l4.8-5.8
		c0.1-0.2,0-0.5-0.2-0.5H66.8c0.2-0.4,0.3-1.1,0.4-1.6h28.9c0.1,0,0.2,0,0.3-0.2l1.2-1.3c0.1-0.2-0.1-0.2-0.3-0.2H67.5
		c0.1-0.3,0.1-1.3,0-1.6h31c0.3,0,0.3-0.2,0.2-0.4l-2-2.4c-0.1-0.2-0.3-0.2-0.5-0.2h-5.4c-0.2,0-0.4-0.2-0.5-0.2L89,9.6
		c-0.1-0.2-0.3-0.2-0.5-0.2h-4.8c-0.2,0-0.4,0-0.5,0.2l-2.4,3.1H67.3c-0.7-2-3.2-2.6-5.5-2.6h-3.4l-1.8,12.4L61.9,22.4L61.9,22.4z"
		/>
</g>
</svg>
