<?xml version="1.0" encoding="UTF-8"?>
<svg width="204px" height="54px" viewBox="0 0 204 54" version="1.1" xmlns="http://www.w3.org/2000/svg" xmlns:xlink="http://www.w3.org/1999/xlink">
    <title>NTTA Logo White No Tag</title>
    <g id="Page-1" stroke="none" stroke-width="1" fill="none" fill-rule="evenodd">
        <g id="01A_Home-&gt;-Get-A-TollTag" transform="translate(-52.000000, -69.000000)" fill="#FFFFFF" fill-rule="nonzero">
            <g id="NTTA-Logo-White-No-Tag" transform="translate(52.000000, 69.405882)">
                <polygon id="Path" opacity="0.25" points="204 1.00588235 27 53.3117647 83.399449 53.3117647 200.05854 2.84908103 127.486915 53.3117647 145.934573 53.3117647"></polygon>
                <path d="M37.7610922,32.1179856 C37.7201365,32.2407295 37.8020478,32.3225588 37.883959,32.3634734 L38.2935154,31.6270101 L44.4368601,0 L60,0 L49.556314,53.3117647 L26.3754266,53.3117647 L22.2798635,21.0710352 C22.3208191,20.9482913 22.2389078,20.8255474 22.1569966,20.7437181 L21.7474403,21.3574376 L15.6040956,53.2708501 L0,53.2708501 L10.4846416,0 L33.6245734,0 L37.7610922,32.1179856 Z" id="Path"></path>
                <path d="M100.247432,13.9820733 C97.2894491,14.2273728 93.8795518,14.104723 90.67507,14.104723 C87.6760037,26.9420651 85.4985994,40.2700063 82.869281,53.3117647 L63.3548086,53.3117647 L70.9962652,14.3091393 L59,14.104723 L61.7114846,0 L103,0 L100.247432,13.9820733 Z" id="Path"></path>
                <path d="M146,0 C145.104533,4.70157434 144.046253,9.32138217 143.272895,14.104723 L131.387604,14.104723 C128.497687,27.1464814 126.259019,40.1882398 123.654024,53.3117647 L104.482886,53.3117647 L111.931545,14.3091393 L102,14.104723 L104.686401,0 L146,0 Z" id="Path"></path>
                <path d="M164.617391,31.5042662 C162.101449,31.8315832 159.22029,31.4224369 156.704348,31.8315832 C159.057971,25.2034129 162.06087,18.4524988 164.617391,11.7834138 L164.617391,31.5042662 Z M177.724638,0 L152.768116,0 L127,53.3117647 L145.463768,53.1071915 L148.994203,44.8015214 L162.588406,44.6787775 L162.994203,44.9242653 C163.318841,47.6655456 162.994203,50.611399 163.278261,53.2708501 L183,53.2708501 C181.255072,35.5548147 179.672464,17.8796939 177.724638,0" id="Shape"></path>
                <path d="M192.36448,47.0562989 C192.15328,46.9397374 191.77312,46.8620298 191.26624,46.8620298 L190.54816,46.8620298 L190.54816,48.6493057 L191.35072,48.6493057 C191.73088,48.6493057 192.02656,48.6104519 192.19552,48.5327443 C192.53344,48.4161828 192.7024,48.144206 192.7024,47.7556678 C192.74464,47.4059833 192.61792,47.1728604 192.36448,47.0562989 M191.4352,46.2403686 C192.0688,46.2403686 192.4912,46.3180762 192.78688,46.4346377 C193.29376,46.6677607 193.5472,47.0562989 193.5472,47.7168139 C193.5472,48.144206 193.37824,48.4938904 193.08256,48.6881596 C192.9136,48.804721 192.66016,48.8824287 192.36448,48.9212825 C192.74464,48.9989902 193.04032,49.1544055 193.20928,49.4263822 C193.37824,49.698359 193.46272,49.9314819 193.46272,50.2034587 L193.46272,50.5531431 C193.46272,50.6697046 193.46272,50.7862661 193.46272,50.9416814 C193.46272,51.0582429 193.50496,51.1748043 193.50496,51.2136582 L193.5472,51.2913658 L192.74464,51.2913658 C192.74464,51.2913658 192.74464,51.252512 192.74464,51.252512 C192.74464,51.252512 192.74464,51.2136582 192.74464,51.2136582 L192.74464,51.0582429 L192.74464,50.6697046 C192.74464,50.0868972 192.57568,49.698359 192.28,49.5429437 C192.11104,49.4263822 191.77312,49.3875284 191.26624,49.3875284 L190.54816,49.3875284 L190.54816,51.3302196 L189.70336,51.3302196 L189.70336,46.3569301 L191.4352,46.3569301 L191.4352,46.2403686 Z M188.77408,46.0072456 C188.01376,46.7843221 187.6336,47.6779601 187.6336,48.7658672 C187.6336,49.8537743 188.01376,50.7862661 188.77408,51.5244888 C189.5344,52.3015653 190.46368,52.6901035 191.51968,52.6901035 C192.57568,52.6901035 193.5472,52.3015653 194.26528,51.5244888 C195.0256,50.7474123 195.40576,49.8149205 195.40576,48.7658672 C195.40576,47.6779601 195.0256,46.7843221 194.26528,46.0072456 C193.50496,45.2301691 192.57568,44.8416309 191.51968,44.8416309 C190.46368,44.8416309 189.5344,45.2301691 188.77408,46.0072456 M194.72992,51.9907347 C193.84288,52.8843726 192.78688,53.3117647 191.51968,53.3117647 C190.25248,53.3117647 189.19648,52.8843726 188.30944,51.9907347 C187.4224,51.0970967 187,50.0480434 187,48.7658672 C187,47.5225448 187.4224,46.4346377 188.30944,45.5798536 C189.19648,44.6862156 190.25248,44.2588235 191.47744,44.2588235 C192.74464,44.2588235 193.80064,44.6862156 194.68768,45.5798536 C195.57472,46.4734915 195.99712,47.5225448 195.99712,48.7658672 C196.03936,50.0091896 195.61696,51.0970967 194.72992,51.9907347" id="Shape"></path>
            </g>
        </g>
    </g>
</svg>