<svg id="Layer_1" data-name="Layer 1" xmlns="http://www.w3.org/2000/svg" viewBox="0 0 468 441.58"><defs><style>.cls-1{fill:#00853e;}.cls-2{fill:#fff;}</style></defs><polygon class="cls-1" points="371.12 78.94 402.97 0 234 0 65.03 0 96.88 78.94 0 78.94 94.64 441.58 373.36 441.58 468 78.94 371.12 78.94"/><path class="cls-2" d="M359.47,425.71H108.53L20.66,91.6h99.05l-29-71.83H377.27l-29,71.83h99ZM113.67,419H354.33L438.69,98.27H338.42l29-71.83H100.6l29,71.83H29.31Z"/><path class="cls-2" d="M176.62,71.4q-3,2.46-8.45,2.46h-7V86h-7V52.28h14.47a11.69,11.69,0,0,1,8,2.61q3,2.61,3,8.07C179.58,66.94,178.6,69.75,176.62,71.4Zm-5.37-12.15a5.71,5.71,0,0,0-3.75-1.12h-6.35v9.93h6.35a5.42,5.42,0,0,0,3.75-1.21A5,5,0,0,0,172.59,63,4.66,4.66,0,0,0,171.25,59.25Z"/><path class="cls-2" d="M210.15,58.25H192.32V65.4h16.37v5.86H192.32v8.66H211V86H185.44V52.28h24.71Z"/><path class="cls-2" d="M216.35,52.28h7.38l13.38,23.5V52.28h6.56V86h-7L222.91,62.07V86h-6.56Z"/><path class="cls-2" d="M250.16,52.28h7.39l13.37,23.5V52.28h6.56V86h-7L256.73,62.07V86h-6.57Z"/><path class="cls-2" d="M293.73,52.28h8L313.62,86H306l-2.22-6.92H291.35L289.07,86H281.7Zm-.46,21h8.63L297.64,60Z"/><path class="cls-2" d="M157,158v11.94H136.78v55.46H122.6V169.92H102.35V158Z"/><path class="cls-2" d="M165.18,158h14.31v41.4q0,6.94,1.64,10.14,2.55,5.67,11.12,5.67t11.07-5.67q1.63-3.2,1.64-10.14V158h14.31v41.43q0,10.76-3.33,16.74-6.21,11-23.69,11t-23.74-11q-3.33-6-3.33-16.74Z"/><path class="cls-2" d="M276,159.72a16.69,16.69,0,0,1,6.31,4.71,20.92,20.92,0,0,1,3.39,5.67,19,19,0,0,1,1.25,7.09,20.24,20.24,0,0,1-2.42,9.44,13.58,13.58,0,0,1-8,6.56,12.62,12.62,0,0,1,6.61,5.33q2,3.45,1.94,10.54v4.53a33.61,33.61,0,0,0,.38,6.26,5.58,5.58,0,0,0,2.6,3.84v1.69H272.5c-.43-1.49-.73-2.69-.92-3.61A33.65,33.65,0,0,1,271,216l-.09-6.26c-.06-4.3-.8-7.16-2.23-8.6s-4.1-2.15-8-2.15H246.89v26.43H233.13V158h32.24Q272.27,158.12,276,159.72Zm-29.11,10V187.8h15.16a16.11,16.11,0,0,0,6.77-1.1q4-1.92,4-7.59,0-6.13-3.87-8.23a13.84,13.84,0,0,0-6.51-1.19Z"/><path class="cls-2" d="M300.21,158H315l26.76,47V158h13.13v67.4H340.77l-27.44-47.82v47.82H300.21Z"/><path class="cls-2" d="M174,308.59q-5.91,4.94-16.9,4.94H143v24.24h-14V270.36H158q10,0,16,5.22t6,16.14Q179.9,303.65,174,308.59Zm-10.75-24.28q-2.67-2.24-7.49-2.24H143v19.84h12.7c3.21,0,5.71-.8,7.49-2.42s2.68-4.17,2.68-7.68S165,285.8,163.23,284.31Z"/><path class="cls-2" d="M204.05,337.77h-14V270.36h14Z"/><path class="cls-2" d="M217.44,270.36H231.3v27.77l26-27.77h18.2l-27.66,27.72L277,337.77H258.85l-20.77-29.43-6.78,6.88v22.55H217.44Z"/><path class="cls-2" d="M334.69,282.3H299v14.31h32.74v11.71H299v17.33h37.32v12.12H285.26V270.36h49.43Z"/></svg>