<?xml version="1.0" encoding="utf-8"?>
<!-- Generator: Adobe Illustrator 27.1.1, SVG Export Plug-In . SVG Version: 6.00 Build 0)  -->
<svg version="1.1" id="Layer_1" xmlns="http://www.w3.org/2000/svg" xmlns:xlink="http://www.w3.org/1999/xlink" x="0px" y="0px"
	 viewBox="0 0 234 255" style="enable-background:new 0 0 234 255;" xml:space="preserve">
<style type="text/css">
	.st0{fill-rule:evenodd;clip-rule:evenodd;fill:#F16A24;}
	.st1{fill:#FFFFFF;}
	.st2{fill:#F16A24;}
</style>
<g>
	<g>
		<g>
			<path class="st0" d="M80.32,128.77c-11.27,11.53-16.48,28.24-16.48,44.49c0,33.53,21.9,58.88,53.25,58.88
				c30.64,0,53.63-25.03,53.63-59.51c0-15.63-5.42-33.66-18-45.54l3.63-6.79l8.64-16.14c24.06,13.16,38.55,37.27,38.55,67.53
				c0,56.65-45.59,81.37-87.9,81.37c-47.42,0-84.63-30.41-84.63-78.86c0-31.25,14.68-54.63,37.21-68.06l7.58,14.15L80.32,128.77z"/>
		</g>
		<g>
			<path class="st0" d="M80.32,128.77c-11.27,11.53-16.48,28.24-16.48,44.49c0,33.53,21.9,58.88,53.25,58.88
				c30.64,0,53.63-25.03,53.63-59.51c0-15.63-5.42-33.66-18-45.54l3.63-6.79l8.64-16.14c24.06,13.16,38.55,37.27,38.55,67.53
				c0,56.65-45.59,81.37-87.9,81.37c-47.42,0-84.63-30.41-84.63-78.86c0-31.25,14.68-54.63,37.21-68.06l7.58,14.15L80.32,128.77z"/>
		</g>
	</g>
	<g>
		<g>
			<g>
				<polygon class="st1" points="64.4,65.88 84.16,65.88 84.16,87.23 64.4,87.23 				"/>
			</g>
			<path class="st1" d="M74.28,76.56"/>
		</g>
	</g>
	<g>
		<g>
			<g>
				<polygon class="st2" points="93.38,65.88 113.16,65.88 113.16,87.23 93.38,87.23 				"/>
			</g>
			<path class="st2" d="M103.27,76.56"/>
		</g>
	</g>
	<g>
		<g>
			<g>
				<polygon class="st2" points="81.19,97.72 100.96,97.72 100.96,119.04 81.19,119.04 				"/>
			</g>
			<path class="st2" d="M91.07,108.37"/>
		</g>
	</g>
	<g>
		<g>
			<g>
				<polygon class="st2" points="130.94,97.72 150.71,97.72 150.71,119.04 130.94,119.04 				"/>
			</g>
			<path class="st2" d="M140.83,108.37"/>
		</g>
	</g>
	<g>
		<g>
			<g>
				<polygon class="st2" points="91.97,128.14 111.74,128.14 111.74,149.49 91.97,149.49 				"/>
			</g>
			<path class="st2" d="M101.86,138.82"/>
		</g>
	</g>
	<g>
		<g>
			<g>
				<polygon class="st2" points="45.33,33.92 65.08,33.92 65.08,55.27 45.33,55.27 				"/>
			</g>
			<path class="st2" d="M55.21,44.6"/>
		</g>
	</g>
	<g>
		<g>
			<g>
				<polygon class="st1" points="106.14,33.92 125.9,33.92 125.9,55.27 106.14,55.27 				"/>
			</g>
			<path class="st1" d="M116.01,44.6"/>
		</g>
	</g>
	<g>
		<g>
			<g>
				<polygon class="st2" points="137.22,33.92 156.98,33.92 156.98,55.27 137.22,55.27 				"/>
			</g>
			<path class="st2" d="M147.1,44.6"/>
		</g>
	</g>
	<g>
		<g>
			<g>
				<polygon class="st1" points="166.82,33.92 186.57,33.92 186.57,55.27 166.82,55.27 				"/>
			</g>
			<path class="st1" d="M176.69,44.6"/>
		</g>
	</g>
	<g>
		<g>
			<g>
				<polygon class="st2" points="182.45,1.95 202.22,1.95 202.22,23.29 182.45,23.29 				"/>
			</g>
			<path class="st2" d="M192.33,12.63"/>
		</g>
	</g>
	<g>
		<g>
			<g>
				<polygon class="st2" points="119.96,1.95 139.73,1.95 139.73,23.29 119.96,23.29 				"/>
			</g>
			<path class="st2" d="M129.84,12.63"/>
		</g>
	</g>
	<g>
		<g>
			<g>
				<polygon class="st1" points="62.31,1.95 82.08,1.95 82.08,23.29 62.31,23.29 				"/>
			</g>
			<path class="st1" d="M72.19,12.63"/>
		</g>
	</g>
	<g>
		<g>
			<g>
				<polygon class="st1" points="147.94,65.88 167.69,65.88 167.69,87.23 147.94,87.23 				"/>
			</g>
			<path class="st1" d="M157.8,76.56"/>
		</g>
	</g>
	<g>
		<g>
			<g>
				<polygon class="st1" points="119.96,128.14 139.73,128.14 139.73,149.49 119.96,149.49 				"/>
			</g>
			<path class="st1" d="M129.84,138.82"/>
		</g>
	</g>
	<g>
		<g>
			<g>
				<polygon class="st1" points="105.99,158.36 125.76,158.36 125.76,179.71 105.99,179.71 				"/>
			</g>
			<path class="st1" d="M115.89,169.03"/>
		</g>
	</g>
</g>
<g>
	<g>
		<g>
			<polygon class="st0" points="192.96,235.18 194.03,235.18 194.03,227.29 196.54,227.29 196.54,226.31 190.48,226.31 
				190.48,227.29 192.96,227.29 			"/>
		</g>
	</g>
	<g>
		<g>
			<path class="st0" d="M204.23,235.18h1.05l-0.52-8.87h-1.34l-1.46,4.29c-0.36,1.12-0.65,2.1-0.87,2.98h-0.02
				c-0.22-0.91-0.49-1.89-0.83-2.98l-1.39-4.29h-1.36l-0.56,8.87h1l0.21-3.78c0.09-1.36,0.14-2.83,0.16-3.94h0.04
				c0.22,1.05,0.55,2.18,0.94,3.46l1.32,4.21h0.8l1.45-4.29c0.41-1.24,0.73-2.35,1.03-3.38h0.03c0,1.1,0.06,2.6,0.13,3.83
				L204.23,235.18z"/>
		</g>
	</g>
</g>
</svg>
